<svg height="496pt" viewBox="0 0 496 496" width="496pt" xmlns="http://www.w3.org/2000/svg"><path d="m488 248c0 132.546875-107.453125 240-240 240s-240-107.453125-240-240 107.453125-240 240-240 240 107.453125 240 240zm0 0" fill="#85d3c1"/><path d="m267.839844 403.359375-3.839844-26.800781 8-24 24 16 5.441406-24.558594 2.558594.558594h72c9.761719 0 18.160156-5.839844 21.839844-14.160156 11.441406 10.640624 18.160156 25.761718 18.160156 41.921874v43.679688l1.679688 1.679688c-16.878907 16.878906-36.320313 31.359374-57.679688 42.558593-24.558594 13.042969-51.679688 21.921875-80.320312 25.601563l-5.441407-38.160156zm0 0" fill="#f5f7fa"/><path d="m397.839844 330.398438c-3.679688 8.320312-12.078125 14.160156-21.839844 14.160156h-8v-48h8c6.640625 0 12.640625 2.640625 16.960938 7.042968 4.320312 4.320313 7.039062 10.320313 7.039062 16.957032 0 3.519531-.800781 6.882812-2.160156 9.839844zm0 0" fill="#f9d48a"/><path d="m373.359375 227.28125c1.761719 3.4375 2.640625 7.277344 2.640625 11.199219 0 14.078125-11.441406 25.519531-25.519531 25.519531h-53.839844c17.039063-13.039062 28.71875-32.878906 30.960937-55.441406h.398438c17.679688 0 32-14.320313 32-32h.160156c.800782 17.28125 5.121094 34.160156 12.71875 49.761718zm0 0" fill="#f9d48a"/><path d="m336 296.558594h32v48h-32zm0 0" fill="#ff958a"/><path d="m328 144.558594v23.441406c-13.839844 0-25.679688-10-27.921875-23.679688l-.558594-3.121093c-2-12.238281-12.640625-21.199219-25.039062-21.199219-6.71875 0-13.121094 2.640625-17.921875 7.441406l-8.558594 8.558594-8.558594-8.558594c-4.800781-4.800781-11.203125-7.441406-17.921875-7.441406-6.160156 0-11.917969 2.238281-16.398437 6-4.480469 3.761719-7.679688 9.039062-8.640625 15.199219l-.558594 3.121093c-2.242187 13.679688-14.082031 23.679688-27.921875 23.679688v-23.441406c-16.558594 0-30.160156 12.5625-31.839844 28.722656h-.238281c.078125-1.042969.078125-2 .078125-3.042969v-50.238281c0-30.878906 12.558594-58.878906 32.800781-79.199219 19.039063-18.960937 44.878907-31.199219 73.4375-32.640625 1.921875-.160156 3.839844-.160156 5.761719-.160156s3.839844 0 5.761719.160156c59.199219 2.960938 106.238281 51.917969 106.238281 111.839844v50.71875c0 1.921875.078125 3.921875.160156 5.839844h-.160156c0-17.679688-14.320312-32-32-32zm0 0" fill="#f9d48a"/><path d="m328 144.558594c17.679688 0 32 14.320312 32 32 0 17.679687-14.320312 32-32 32h-.398438c.238282-2.636719.398438-5.277344.398438-8zm0 0" fill="#f5f7fa"/><path d="m336 296.558594v48h-32l-2.558594-.558594 10.558594-47.441406zm0 0" fill="#f9d48a"/><path d="m296.640625 264c-.160156.238281-.402344.398438-.640625.558594-13.359375 10-30 16-48 16s-34.640625-6-48-16c-.238281-.160156-.480469-.320313-.640625-.558594-2.800781-2.078125-5.4375-4.398438-7.917969-6.878906-12.722656-12.722656-21.203125-29.679688-23.042968-48.5625-.238282-2.636719-.398438-5.277344-.398438-8v-32.558594c13.839844 0 25.679688-10 27.921875-23.679688l.558594-3.121093c.960937-6.160157 4.160156-11.4375 8.640625-15.199219 4.480468-3.761719 10.238281-6 16.398437-6 6.71875 0 13.121094 2.640625 17.921875 7.441406l8.558594 8.558594 8.558594-8.558594c4.800781-4.800781 11.203125-7.441406 17.921875-7.441406 12.398437 0 23.039062 8.960938 25.039062 21.199219l.558594 3.121093c2.242187 13.679688 14.082031 23.679688 27.921875 23.679688v32.558594c0 2.722656-.160156 5.363281-.398438 8-2.242187 22.5625-13.921874 42.402344-30.960937 55.441406zm0 0" fill="#f5f7fa"/><path d="m312 296.558594-10.558594 47.441406-5.441406 24.558594-48-32 48-40zm0 0" fill="#f9d48a"/><path d="m296 264.558594v32l-48 40-48-40v-32c13.359375 10 30 16 48 16s34.640625-6 48-16zm0 0" fill="#f5f7fa"/><g fill="#ff958a"><path d="m274.238281 447.679688 5.441407 38.160156c-10.398438 1.441406-20.960938 2.160156-31.679688 2.160156s-21.28125-.71875-31.679688-2.160156l.078126-.71875 55.601562-37.121094zm0 0"/><path d="m267.839844 403.359375 6.398437 44.320313-2.238281.320312-55.601562 37.121094 7.601562-52.5625zm0 0"/><path d="m272 352.558594-8 24h-32l-8-24 24-16zm0 0"/><path d="m264 376.558594 3.839844 26.800781-43.839844 29.199219 8-56zm0 0"/></g><path d="m248 336.558594-48 32-5.441406-24.558594-10.558594-47.441406h16zm0 0" fill="#f9d48a"/><path d="m216.398438 485.121094-.078126.71875c-28.640624-3.679688-55.761718-12.558594-80.320312-25.601563-21.359375-11.199219-40.800781-25.679687-57.679688-42.558593l1.679688-1.679688v-43.679688c0-16.160156 6.71875-31.28125 18.160156-41.921874 3.679688 8.320312 12.078125 14.160156 21.839844 14.160156h72l2.558594-.558594 5.441406 24.558594 24-16 8 24-8 56zm0 0" fill="#f5f7fa"/><path d="m199.359375 264h-53.839844c-14.078125 0-25.519531-11.441406-25.519531-25.519531v-.480469c0-3.921875.960938-7.839844 2.71875-11.359375 8.242188-16.640625 12.800781-34.800781 13.203125-53.359375h.238281c-.082031 1.039062-.160156 2.160156-.160156 3.277344 0 17.679687 14.320312 32 32 32h.398438c1.839843 18.882812 10.320312 35.839844 23.042968 48.5625 2.480469 2.480468 5.117188 4.800781 7.917969 6.878906zm0 0" fill="#f9d48a"/><path d="m184 296.558594 10.558594 47.441406-2.558594.558594h-32v-48zm0 0" fill="#f9d48a"/><path d="m168.398438 208.558594h-.398438c-17.679688 0-32-14.320313-32-32 0-1.117188.078125-2.238282.160156-3.277344 1.679688-16.160156 15.28125-28.722656 31.839844-28.722656v56c0 2.722656.160156 5.363281.398438 8zm0 0" fill="#f5f7fa"/><path d="m128 296.558594h32v48h-32zm0 0" fill="#ff958a"/><path d="m98.160156 330.398438c-1.359375-2.957032-2.160156-6.320313-2.160156-9.839844 0-6.636719 2.71875-12.636719 7.039062-16.957032 4.320313-4.402343 10.320313-7.042968 16.960938-7.042968h8v48h-8c-9.761719 0-18.160156-5.839844-21.839844-14.160156zm0 0" fill="#f9d48a"/><path d="m248 256.566406c17.648438 0 32-14.351562 32-32h-16c0 8.824219-7.175781 16-16 16s-16-7.175781-16-16h-16c0 17.648438 14.351562 32 32 32zm0 0"/><path d="m216 176.566406c0 4.417969-3.582031 8-8 8s-8-3.582031-8-8c0-4.417968 3.582031-8 8-8s8 3.582032 8 8zm0 0"/><path d="m296 176.566406c0 4.417969-3.582031 8-8 8s-8-3.582031-8-8c0-4.417968 3.582031-8 8-8s8 3.582032 8 8zm0 0"/><path d="m160 392.566406h40v16h-40zm0 0"/><path d="m248 0c-136.742188 0-248 111.257812-248 248s111.257812 248 248 248 248-111.257812 248-248-111.257812-248-248-248zm232 248c0 57.585938-21.136719 110.296875-56 150.902344v-26.558594c0-16.421875-6.144531-32.097656-17.023438-44.136719.609376-2.453125 1.023438-4.992187 1.023438-7.640625 0-17.644531-14.351562-32-32-32h-72v-16.566406h46.496094c18.472656 0 33.503906-15.03125 33.503906-33.503906 0-5.089844-1.183594-10.199219-3.433594-14.777344l-.46875-.957031c-7.914062-16.105469-12.097656-34.105469-12.097656-52.050781v-50.710938c0-35.9375-15.953125-68.144531-41.0625-90.152344 89.183594 32.367188 153.0625 117.929688 153.0625 218.152344zm-128 128.566406v78.722656c-20.328125 10.238282-42.34375 17.574219-65.535156 21.464844l-14.28125-99.449218 4.089844-12.273438 25 16.664062 6.46875-29.136718h68.257812c8.800781 0 16.785156-3.574219 22.574219-9.34375 6.058593 8.410156 9.425781 18.5625 9.425781 29.121094v43.417968c-12.167969 11.605469-25.542969 21.949219-40 30.726563v-69.914063zm-224 0v69.914063c-14.457031-8.769531-27.832031-19.121094-40-30.726563v-43.417968c0-10.566407 3.375-20.710938 9.425781-29.121094 5.789063 5.769531 13.765625 9.34375 22.574219 9.34375h68.246094l6.472656 29.136718 25-16.664062 4.089844 12.273438-14.28125 99.449218c-23.183594-3.890625-45.207032-11.226562-65.535156-21.464844v-78.722656zm120-360.566406c57.34375 0 104 46.65625 104 104v24.777344c-4.671875-3.539063-10.054688-6.183594-16-7.394532v-16.808593h-16v37.738281c-6.207031-2.65625-10.878906-8.257812-12.054688-15.304688l-.519531-3.121093c-2.691406-16.160157-16.539062-27.886719-32.921875-27.886719-8.910156 0-17.296875 3.472656-23.59375 9.777344l-2.910156 2.910156-2.910156-2.910156c-6.304688-6.304688-14.683594-9.777344-23.59375-9.777344-16.382813 0-30.222656 11.726562-32.910156 27.878906l-.523438 3.136719c-1.175781 7.039063-5.847656 12.648437-12.054688 15.296875v-37.738281h-16v16.808593c-5.945312 1.21875-11.328124 3.855469-16 7.394532v-24.777344c-.007812-57.34375 46.648438-104 103.992188-104zm117.734375 213.824219.472656.960937c1.167969 2.382813 1.792969 5.046875 1.792969 7.710938 0 9.65625-7.847656 17.503906-17.503906 17.503906h-34.230469c9.246094-11.367188 15.65625-25.089844 18.308594-40.097656 8.523437-1.421875 16.144531-5.453125 21.953125-11.367188 2.265625 8.703125 5.25 17.226563 9.207031 25.289063zm10.265625 106.742187v-32c8.824219 0 16 7.175782 16 16 0 8.824219-7.175781 16-16 16zm-16 0h-16v-32h16zm-32 0h-16.695312l7.109374-32h9.585938zm-89.0625 48h18.132812l2.144532 14.914063-24.789063 16.527343zm19.292969-16h-20.46875l-4.242188-12.734375 14.480469-9.648437 14.480469 9.648437zm-98.230469-169.46875c-9.289062-3.3125-16-12.113281-16-22.53125 0-10.414062 6.710938-19.214844 16-22.527344zm16-24.082031c14.167969-3.175781 25.351562-14.503906 27.832031-29.367187l.519531-3.136719c1.410157-8.40625 8.617188-14.511719 17.144532-14.511719 4.640625 0 9 1.808594 12.28125 5.089844l14.222656 14.222656 14.222656-14.222656c3.28125-3.28125 7.640625-5.089844 12.28125-5.089844 8.527344 0 15.734375 6.105469 17.136719 14.519531l.519531 3.128907c2.480469 14.871093 13.671875 26.199218 27.832032 29.375v25.550781c0 39.699219-32.304688 72-72 72-39.695313 0-72-32.300781-72-72v-25.558594zm160-20.96875c9.289062 3.3125 16 12.113281 16 22.527344 0 10.417969-6.710938 19.21875-16 22.53125zm-128 124.808594c12.015625 6.167969 25.59375 9.710937 40 9.710937s27.984375-3.550781 40-9.710937v13.96875l-40 33.335937-40-33.335937zm53.351562 57 37.542969-31.289063h3.136719l-11.3125 50.875zm-131.503906-105.664063c4.097656-8.183594 7.28125-16.816406 9.617188-25.671875 5.800781 5.921875 13.429687 9.960938 21.960937 11.382813 2.652344 15.007812 9.0625 28.730468 18.308594 40.097656h-34.230469c-9.65625 0-17.503906-7.847656-17.503906-17.984375 0-2.695313.640625-5.40625 1.847656-7.824219zm67.257813 74.375 37.542969 31.289063-29.367188 19.585937-11.304688-50.867187h3.128907zm-19.519531 0 7.109374 32h-16.695312v-32zm-25.585938 32h-16v-32h16zm-32 0c-8.824219 0-16-7.175781-16-16 0-8.824218 7.175781-16 16-16zm111.367188 100.707032 30.359374-20.242188 3.699219 25.738281-38.539062 25.6875zm-62.304688-407.425782c-25.109375 22.007813-41.0625 54.214844-41.0625 90.152344v50.238281c0 18.242188-4.3125 36.496094-12.464844 52.800781-2.3125 4.625-3.535156 9.808594-3.535156 15.457032 0 18.472656 15.03125 33.503906 33.503906 33.503906h46.496094v16.566406h-72c-17.648438 0-32 14.355469-32 32 0 2.648438.414062 5.175782 1.023438 7.640625-10.878907 12.039063-17.023438 27.714844-17.023438 44.136719v26.558594c-34.863281-40.605469-56-93.316406-56-150.902344 0-100.222656 63.878906-185.785156 153.0625-218.152344zm69.707031 449.921875 29.175781-19.449219 2.664063 18.558594c-7.441406.730469-14.976563 1.121094-22.609375 1.121094-3.097656 0-6.160156-.113281-9.230469-.230469zm0 0"/></svg>